<svg width="12" height="16" fill="none" xmlns="http://www.w3.org/2000/svg"><path d="M11.707 11.302a2.116 2.116 0 01-.618-.373c-.515-.469-.86-1.032-.945-1.726a2.832 2.832 0 01.042-.984 2.33 2.33 0 01.637-1.132c.206-.202.418-.397.624-.6.127-.124.151-.307.042-.444a4.172 4.172 0 00-.788-.77 3.376 3.376 0 00-1.26-.576 3.288 3.288 0 00-.994-.083c-.564.054-1.103.208-1.637.386-.424.136-.836.178-1.272.053-.503-.148-1.012-.284-1.54-.344-.54-.059-1.06-.023-1.57.166-.636.237-1.127.64-1.52 1.18-.291.397-.51.83-.655 1.299-.17.54-.249 1.096-.249 1.399-.024.8.055 1.334.17 1.861.091.404.218.795.37 1.18.357.92.824 1.773 1.46 2.532.34.403.728.753 1.219.966.315.137.642.19.975.137.352-.054.691-.178 1.025-.303.212-.077.424-.148.648-.183.358-.06.697.005 1.036.106.358.107.703.231 1.061.326.54.143 1.036.077 1.51-.207.587-.356 1.023-.86 1.405-1.411.424-.623.782-1.28 1.012-1.998.073-.202.006-.38-.188-.457zm-5.77-6.937l.188-.017c.43-.036.837-.125 1.2-.374.273-.19.51-.409.721-.658A3.29 3.29 0 008.66 2.29c.096-.272.127-.563.157-.847.018-.172.018-.338.03-.51.019-.267-.17-.48-.472-.41-.303.072-.6.16-.885.291-.43.196-.824.445-1.127.812-.546.658-.782 1.43-.83 2.265v.137c0 .237.163.373.405.337z" fill="#000"/></svg>