<svg width="18" height="19" fill="none" xmlns="http://www.w3.org/2000/svg"><path fill-rule="evenodd" clip-rule="evenodd" d="M9 3.98c1.69 0 2.83.73 3.48 1.34l2.54-2.48C13.46 1.39 11.43.5 9 .5 5.48.5 2.44 2.52.96 5.46l2.91 2.26C4.6 5.55 6.62 3.98 9 3.98z" fill="#EA4335"/><path fill-rule="evenodd" clip-rule="evenodd" d="M17.64 9.7c0-.74-.06-1.28-.19-1.84H9v3.34h4.96c-.1.83-.64 2.08-1.84 2.92l2.84 2.2c1.7-1.57 2.68-3.88 2.68-6.62z" fill="#4285F4"/><path fill-rule="evenodd" clip-rule="evenodd" d="M3.88 11.28a5.54 5.54 0 01-.3-1.78c0-.62.11-1.22.29-1.78L.96 5.46A9.008 9.008 0 000 9.5c0 1.45.35 2.82.96 4.04l2.92-2.26z" fill="#FBBC05"/><path fill-rule="evenodd" clip-rule="evenodd" d="M9 18.5c2.43 0 4.47-.8 5.96-2.18l-2.84-2.2c-.76.53-1.78.9-3.12.9-2.38 0-4.4-1.57-5.12-3.74L.97 13.54C2.45 16.48 5.48 18.5 9 18.5z" fill="#34A853"/></svg>