<svg width="18" height="19" fill="none" xmlns="http://www.w3.org/2000/svg"><mask id="mask0_24_1073" style="mask-type:alpha" maskUnits="userSpaceOnUse" x="0" y="0" width="18" height="19"><path fill-rule="evenodd" clip-rule="evenodd" d="M0 .5h18v17.89H0V.5z" fill="#fff"/></mask><g mask="url(#mask0_24_1073)"><path fill-rule="evenodd" clip-rule="evenodd" d="M18 9.5a9 9 0 10-10.407 8.89v-6.289H5.308V9.5h2.285V7.517c0-2.256 1.344-3.502 3.4-3.502.984 0 2.014.176 2.014.176v2.215h-1.135c-1.118 0-1.466.694-1.466 1.405V9.5h2.496l-.4 2.601h-2.096v6.29C14.708 17.715 18 13.992 18 9.5z" fill="#3578E5"/></g><path fill-rule="evenodd" clip-rule="evenodd" d="M12.503 12.101l.399-2.601h-2.496V7.81c0-.711.348-1.405 1.466-1.405h1.135V4.19s-1.03-.176-2.015-.176c-2.055 0-3.4 1.246-3.4 3.502V9.5H5.309v2.6h2.285v6.29a9.067 9.067 0 002.813 0V12.1h2.097z" fill="#fff"/></svg>