<svg width="18" height="18" fill="none" xmlns="http://www.w3.org/2000/svg"><path fill-rule="evenodd" clip-rule="evenodd" d="M13.492 14.527c-1.302.651-2.8.977-4.492.977-1.693 0-3.19-.326-4.492-.977a8.064 8.064 0 01-2.715-2.187c-.443-.56-.84-1.27-1.191-2.13C.328 9.587.192 9.183.192 9l.004-.061c.024-.204.16-.587.406-1.15.351-.86.748-1.569 1.191-2.129a8.392 8.392 0 012.695-2.187C5.79 2.822 7.294 2.496 9 2.496c1.706 0 3.203.326 4.492.977a8.065 8.065 0 012.715 2.187c.456.573.853 1.283 1.191 2.13.274.624.41 1.028.41 1.21 0 .182-.13.586-.39 1.21-.352.847-.755 1.557-1.211 2.13a8.325 8.325 0 01-2.715 2.187zm-8.379-1.25c1.107.547 2.4.82 3.877.82 1.478 0 2.77-.273 3.877-.82a6.433 6.433 0 002.227-1.816h.02c.507-.638.924-1.458 1.25-2.461-.326-1.003-.75-1.823-1.27-2.46a6.38 6.38 0 00-2.227-1.817c-1.094-.56-2.383-.84-3.867-.84s-2.78.28-3.887.84a6.68 6.68 0 00-2.226 1.816c-.521.638-.944 1.458-1.27 2.461.326 1.003.749 1.823 1.27 2.46a6.68 6.68 0 002.226 1.817zM9 12.36c.938 0 1.735-.328 2.393-.986.657-.657.986-1.455.986-2.393 0-.937-.332-1.731-.996-2.382-.651-.664-1.445-.996-2.383-.996s-1.735.328-2.393.986c-.657.657-.986 1.455-.986 2.392 0 .938.329 1.736.986 2.393.658.658 1.455.986 2.393.986zm-1.406-1.972c.39.39.86.586 1.406.586.547 0 1.016-.196 1.406-.586.39-.39.586-.86.586-1.407 0-.546-.195-1.015-.586-1.406A1.92 1.92 0 009 6.989c-.547 0-1.016.196-1.406.586-.39.39-.586.86-.586 1.406 0 .547.195 1.016.586 1.407z" fill="#474747" fill-opacity=".7"/><path d="M16.5 2l-15 14" stroke="#7E7E7E" stroke-width="1.5" stroke-linecap="square"/></svg>