<svg width="12" height="16" viewBox="0 0 12 16" fill="none" xmlns="http://www.w3.org/2000/svg">
<path d="M11.7074 11.3022C11.4832 11.2073 11.2711 11.0947 11.0892 10.9286C10.5741 10.4603 10.2286 9.89702 10.1438 9.20335C10.1074 8.87726 10.1074 8.54524 10.1862 8.21916C10.2892 7.78635 10.5014 7.4069 10.8226 7.08675C11.0286 6.88517 11.2408 6.68951 11.4468 6.48793C11.5741 6.36343 11.5983 6.17963 11.4892 6.04327C11.2589 5.75868 11.0044 5.49188 10.7014 5.27252C10.3256 4.99386 9.90136 4.80414 9.44076 4.69742C9.11348 4.62627 8.78621 4.58477 8.44682 4.61441C7.88318 4.66777 7.34379 4.82192 6.81045 4.99979C6.38621 5.13615 5.97409 5.17766 5.53773 5.05315C5.0347 4.90493 4.52561 4.76856 3.99833 4.70928C3.45894 4.64999 2.93773 4.68556 2.42864 4.87528C1.79227 5.11244 1.30136 5.5156 0.907424 6.05513C0.616515 6.45236 0.398333 6.88517 0.252878 7.35354C0.0831812 7.89307 0.00439335 8.45038 0.00439335 8.75275C-0.0198491 9.55315 0.0589388 10.0867 0.17409 10.6144C0.264999 11.0176 0.392272 11.4089 0.543787 11.7943C0.901363 12.7132 1.36803 13.567 2.00439 14.3259C2.34379 14.729 2.73167 15.0788 3.22258 15.2923C3.53773 15.4286 3.865 15.482 4.19833 15.4286C4.54985 15.3753 4.88924 15.2508 5.22258 15.1263C5.4347 15.0492 5.64682 14.9781 5.87106 14.9425C6.22864 14.8832 6.56803 14.9484 6.90742 15.0492C7.265 15.1559 7.61045 15.2804 7.96803 15.3753C8.50742 15.5176 9.00439 15.4524 9.47712 15.1678C10.065 14.812 10.5014 14.3081 10.8832 13.7567C11.3074 13.1342 11.665 12.4761 11.8953 11.7587C11.968 11.5571 11.9014 11.3792 11.7074 11.3022Z" fill="black"/>
<path d="M5.93731 4.36549C5.99792 4.35956 6.06458 4.35364 6.12519 4.34771C6.55549 4.31213 6.96155 4.2232 7.32519 3.97419C7.59792 3.78447 7.83428 3.5651 8.0464 3.31609C8.30701 3.00779 8.52519 2.66984 8.65852 2.29039C8.75549 2.01767 8.7858 1.72715 8.8161 1.44257C8.83428 1.27063 8.83428 1.10462 8.8464 0.932686C8.86458 0.665888 8.6767 0.452449 8.37367 0.523596C8.07064 0.594742 7.77367 0.683675 7.48883 0.814109C7.05852 1.00976 6.66458 1.25877 6.36155 1.62636C5.8161 2.28447 5.57973 3.05522 5.53125 3.89118C5.53125 3.93862 5.53125 3.98012 5.53125 4.02755C5.53125 4.2647 5.69489 4.40107 5.93731 4.36549Z" fill="black"/>
</svg>
