<svg width="12" height="8" viewBox="0 0 12 8" fill="none" xmlns="http://www.w3.org/2000/svg">
<path d="M2.13075 0.709631L6.01075 4.58963L9.89075 0.709631C9.98333 0.617049 10.0932 0.543609 10.2142 0.493505C10.3352 0.4434 10.4648 0.41761 10.5957 0.41761C10.7267 0.41761 10.8563 0.4434 10.9773 0.493505C11.0983 0.543609 11.2082 0.617049 11.3007 0.709631C11.3933 0.802213 11.4668 0.912124 11.5169 1.03309C11.567 1.15405 11.5928 1.2837 11.5928 1.41463C11.5928 1.54556 11.567 1.67521 11.5169 1.79617C11.4668 1.91714 11.3933 2.02705 11.3007 2.11963L6.71075 6.70963C6.61823 6.80233 6.50835 6.87588 6.38737 6.92606C6.2664 6.97624 6.13672 7.00208 6.00575 7.00208C5.87478 7.00208 5.7451 6.97624 5.62412 6.92606C5.50315 6.87588 5.39326 6.80233 5.30075 6.70963L0.710748 2.11963C0.618045 2.02712 0.544497 1.91723 0.494316 1.79626C0.444134 1.67528 0.418304 1.5456 0.418304 1.41463C0.418304 1.28366 0.444134 1.15398 0.494316 1.03301C0.544497 0.912033 0.618045 0.802145 0.710748 0.709631C1.10075 0.329631 1.74075 0.319631 2.13075 0.709631V0.709631Z" fill="#9E9C9C"/>
</svg>
