<svg width="18" height="19" viewBox="0 0 18 19" fill="none" xmlns="http://www.w3.org/2000/svg">
<mask id="mask0_24_1073" style="mask-type:alpha" maskUnits="userSpaceOnUse" x="0" y="0" width="18" height="19">
<path fill-rule="evenodd" clip-rule="evenodd" d="M0 0.5H17.9996V18.3907H0V0.5Z" fill="white"/>
</mask>
<g mask="url(#mask0_24_1073)">
<path fill-rule="evenodd" clip-rule="evenodd" d="M17.9997 9.49962C17.9997 4.52886 13.9701 0.499268 8.99938 0.499268C4.02861 0.499268 -0.000976562 4.52886 -0.000976562 9.49962C-0.000976562 13.992 3.29032 17.7154 7.59307 18.3906V12.1013H5.30782V9.49962H7.59307V7.51673C7.59307 5.26102 8.93676 4.01503 10.9926 4.01503C11.9773 4.01503 13.0073 4.19082 13.0073 4.19082V6.40575H11.8724C10.7544 6.40575 10.4057 7.09953 10.4057 7.8113V9.49962H12.9019L12.5028 12.1013H10.4057V18.3906C14.7084 17.7154 17.9997 13.992 17.9997 9.49962Z" fill="#3578E5"/>
</g>
<path fill-rule="evenodd" clip-rule="evenodd" d="M12.5026 12.1014L12.9017 9.49973H10.4055V7.8114C10.4055 7.09964 10.7541 6.40586 11.8722 6.40586H13.0071V4.19092C13.0071 4.19092 11.9771 4.01514 10.9924 4.01514C8.93655 4.01514 7.59286 5.26112 7.59286 7.51684V9.49973H5.30762V12.1014H7.59286V18.3907C8.05109 18.4626 8.52074 18.5001 8.99917 18.5001C9.47759 18.5001 9.94725 18.4626 10.4055 18.3907V12.1014H12.5026Z" fill="white"/>
</svg>
