<svg width="18" height="19" viewBox="0 0 18 19" fill="none" xmlns="http://www.w3.org/2000/svg">
<path fill-rule="evenodd" clip-rule="evenodd" d="M8.99996 3.98C10.69 3.98 11.83 4.71 12.48 5.32L15.02 2.84C13.46 1.39 11.43 0.5 8.99996 0.5C5.47996 0.5 2.43996 2.52 0.959961 5.46L3.86996 7.72C4.59996 5.55 6.61996 3.98 8.99996 3.98Z" fill="#EA4335"/>
<path fill-rule="evenodd" clip-rule="evenodd" d="M17.64 9.70011C17.64 8.96011 17.58 8.42011 17.45 7.86011H9V11.2001H13.96C13.86 12.0301 13.32 13.2801 12.12 14.1201L14.96 16.3201C16.66 14.7501 17.64 12.4401 17.64 9.70011Z" fill="#4285F4"/>
<path fill-rule="evenodd" clip-rule="evenodd" d="M3.88 11.28C3.69 10.72 3.58 10.12 3.58 9.49996C3.58 8.87996 3.69 8.27996 3.87 7.71996L0.96 5.45996C0.35 6.67996 0 8.04996 0 9.49996C0 10.95 0.35 12.32 0.96 13.54L3.88 11.28Z" fill="#FBBC05"/>
<path fill-rule="evenodd" clip-rule="evenodd" d="M8.99973 18.5C11.4297 18.5 13.4697 17.7 14.9597 16.32L12.1197 14.12C11.3597 14.65 10.3397 15.02 8.99973 15.02C6.61973 15.02 4.59973 13.45 3.87973 11.28L0.969727 13.54C2.44973 16.48 5.47973 18.5 8.99973 18.5Z" fill="#34A853"/>
</svg>
