<svg width="18" height="18" viewBox="0 0 18 18" fill="none" xmlns="http://www.w3.org/2000/svg">
<path fill-rule="evenodd" clip-rule="evenodd" d="M13.4922 14.5273C12.1901 15.1784 10.6927 15.5039 9 15.5039C7.30729 15.5039 5.8099 15.1784 4.50781 14.5273C3.4401 13.9935 2.53516 13.2643 1.79297 12.3398C1.35026 11.7799 0.953125 11.0703 0.601562 10.2109C0.328125 9.58594 0.191406 9.18229 0.191406 9L0.195508 8.93867C0.220117 8.73477 0.355469 8.35156 0.601562 7.78906C0.953125 6.92969 1.35026 6.22005 1.79297 5.66016C2.54818 4.73568 3.44661 4.00651 4.48828 3.47266C5.79036 2.82161 7.29427 2.49609 9 2.49609C10.7057 2.49609 12.2031 2.82161 13.4922 3.47266C14.5599 4.00651 15.4648 4.73568 16.207 5.66016C16.6628 6.23307 17.0599 6.94271 17.3984 7.78906C17.6719 8.41406 17.8086 8.81771 17.8086 9C17.8086 9.18229 17.6784 9.58594 17.418 10.2109C17.0664 11.0573 16.6628 11.7669 16.207 12.3398C15.4518 13.2643 14.5469 13.9935 13.4922 14.5273ZM5.11328 13.2773C6.22005 13.8242 7.51237 14.0977 8.99023 14.0977C10.4681 14.0977 11.7604 13.8242 12.8672 13.2773C13.7526 12.8346 14.4948 12.2292 15.0938 11.4609H15.1133C15.6211 10.8229 16.0378 10.0026 16.3633 9C16.0378 7.9974 15.6146 7.17708 15.0938 6.53906C14.4818 5.75781 13.7396 5.15234 12.8672 4.72266C11.7734 4.16276 10.4844 3.88281 9 3.88281C7.51562 3.88281 6.22005 4.16276 5.11328 4.72266C4.24089 5.16536 3.4987 5.77083 2.88672 6.53906C2.36589 7.17708 1.94271 7.9974 1.61719 9C1.94271 10.0026 2.36589 10.8229 2.88672 11.4609C3.4987 12.2292 4.24089 12.8346 5.11328 13.2773ZM9 12.3594C9.9375 12.3594 10.735 12.0306 11.3926 11.373C12.0501 10.7155 12.3789 9.91797 12.3789 8.98047C12.3789 8.04297 12.0469 7.2487 11.3828 6.59766C10.7318 5.93359 9.9375 5.60156 9 5.60156C8.0625 5.60156 7.26497 5.93034 6.60742 6.58789C5.94987 7.24544 5.62109 8.04297 5.62109 8.98047C5.62109 9.91797 5.94987 10.7155 6.60742 11.373C7.26497 12.0306 8.0625 12.3594 9 12.3594ZM7.59375 10.3867C7.98438 10.7773 8.45312 10.9727 9 10.9727C9.54688 10.9727 10.0156 10.7773 10.4062 10.3867C10.7969 9.99609 10.9922 9.52734 10.9922 8.98047C10.9922 8.43359 10.7969 7.96484 10.4062 7.57422C10.0156 7.18359 9.54688 6.98828 9 6.98828C8.45312 6.98828 7.98438 7.18359 7.59375 7.57422C7.20312 7.96484 7.00781 8.43359 7.00781 8.98047C7.00781 9.52734 7.20312 9.99609 7.59375 10.3867Z" fill="#474747" fill-opacity="0.7"/>
<path d="M16.5 2L1.5 16" stroke="#7E7E7E" stroke-width="1.5" stroke-linecap="square"/>
</svg>
